<svg viewBox="0 0 1200 30" xmlns="http://www.w3.org/2000/svg">
  <defs>
    <linearGradient id="dhg" x1="0" y1="0" x2="1" y2="0">
      <stop offset="0%" stop-color="#98f5a0" stop-opacity="0"/>
      <stop offset="50%" stop-color="#98f5a0" stop-opacity="0.75"/>
      <stop offset="100%" stop-color="#98f5a0" stop-opacity="0"/>
    </linearGradient>
    <filter id="dhglow"><feGaussianBlur stdDeviation="0.8"/></filter>
  </defs>
  <g stroke="url(#dhg)" stroke-width="1.2" fill="none" filter="url(#dhglow)">
    <path d="M 0,15 C 60,5 120,25 180,15 S 300,5 360,15 S 480,25 540,15 S 660,5 720,15 S 840,25 900,15 S 1020,5 1080,15 L 1200,15"/>
    <path d="M 0,15 C 60,25 120,5 180,15 S 300,25 360,15 S 480,5 540,15 S 660,25 720,15 S 840,5 900,15 S 1020,25 1080,15 L 1200,15"/>
  </g>
  <g stroke="#98f5a0" stroke-width="0.7" opacity="0.45">
    <line x1="60" y1="9" x2="60" y2="21"/>
    <line x1="300" y1="9" x2="300" y2="21"/>
    <line x1="540" y1="9" x2="540" y2="21"/>
    <line x1="780" y1="9" x2="780" y2="21"/>
    <line x1="1020" y1="9" x2="1020" y2="21"/>
  </g>
</svg>
